<?xml version='1.0' encoding='utf-8'?>
<svg xmlns="http://www.w3.org/2000/svg" width="1280px" height="720px" viewBox="0 0 1280 720"><g transform="translate(0,720.0) scale(1,-1)"><path d="M 232.00 515.50 L 236.00 515.50 L 240.00 513.50 L 243.50 510.00 L 244.50 507.00 L 243.50 499.00 L 236.00 493.50 L 229.00 494.50 L 223.50 500.00 L 222.50 504.00 L 223.50 509.00 L 229.00 514.50 L 232.00 515.50 Z M 183.00 513.50 L 190.00 512.50 L 195.50 506.00 L 194.50 497.00 L 190.00 492.50 L 187.00 491.50 L 180.00 492.50 L 174.50 499.00 L 175.50 508.00 L 180.00 512.50 L 183.00 513.50 Z M 279.00 497.50 L 286.00 496.50 L 291.50 490.00 L 290.50 481.00 L 286.00 476.50 L 283.00 475.50 L 276.00 476.50 L 270.50 483.00 L 271.50 492.00 L 276.00 496.50 L 279.00 497.50 Z M 133.00 495.50 L 141.00 495.50 L 147.50 489.00 L 147.50 481.00 L 144.00 476.50 L 140.00 474.50 L 132.00 475.50 L 126.50 482.00 L 126.50 488.00 L 128.50 492.00 L 133.00 495.50 Z M 224.00 479.50 L 232.00 478.50 L 235.50 473.00 L 234.50 468.00 L 229.00 463.50 L 223.00 464.50 L 219.50 468.00 L 218.50 472.00 L 219.50 475.00 L 224.00 479.50 Z M 186.00 477.50 L 194.00 476.50 L 197.50 471.00 L 196.50 466.00 L 191.00 461.50 L 187.00 461.50 L 181.50 466.00 L 180.50 470.00 L 181.50 473.00 L 186.00 477.50 Z M 594.00 468.50 L 609.00 468.50 L 622.00 464.50 L 623.50 463.00 L 624.00 439.50 L 640.00 456.50 L 656.00 465.50 L 669.00 468.50 L 684.00 468.50 L 697.00 464.50 L 698.50 463.00 L 698.50 423.00 L 696.00 422.50 L 688.00 426.50 L 676.00 426.50 L 672.00 424.50 L 666.50 419.00 L 664.50 411.00 L 664.50 383.00 L 698.00 382.50 L 699.00 364.50 L 714.00 376.50 L 726.00 382.50 L 742.00 386.50 L 760.00 386.50 L 769.00 384.50 L 781.00 379.50 L 793.00 369.50 L 794.50 370.00 L 795.00 382.50 L 851.00 382.50 L 851.50 416.00 L 852.50 417.00 L 851.50 422.00 L 853.00 424.50 L 899.00 424.50 L 900.50 423.00 L 900.50 384.00 L 902.00 382.50 L 916.00 382.50 L 916.50 467.00 L 918.00 468.50 L 964.00 468.50 L 965.50 467.00 L 966.00 365.50 L 976.00 375.50 L 982.00 379.50 L 992.00 383.50 L 1002.00 384.50 L 1003.00 385.50 L 1019.00 385.50 L 1032.00 382.50 L 1047.00 373.50 L 1054.50 365.00 L 1060.50 352.00 L 1063.00 336.50 L 1070.50 353.00 L 1074.50 359.00 L 1092.00 375.50 L 1111.00 384.50 L 1121.00 385.50 L 1122.00 386.50 L 1144.00 385.50 L 1154.00 382.50 L 1162.00 378.50 L 1172.00 369.50 L 1173.50 370.00 L 1174.00 382.50 L 1221.00 382.50 L 1221.50 245.00 L 1220.00 243.50 L 1218.00 244.50 L 1217.00 243.50 L 1182.00 243.50 L 1181.00 244.50 L 1179.00 243.50 L 1174.00 244.50 L 1173.50 258.00 L 1172.00 258.50 L 1162.00 248.50 L 1147.00 241.50 L 1138.00 239.50 L 1124.00 239.50 L 1123.00 240.50 L 1113.00 241.50 L 1096.00 248.50 L 1085.00 256.50 L 1071.50 272.00 L 1063.00 290.50 L 1062.50 245.00 L 1060.00 243.50 L 1056.00 244.50 L 1055.00 243.50 L 1016.00 243.50 L 1013.50 246.00 L 1013.50 329.00 L 1012.50 333.00 L 1009.50 339.00 L 1004.00 344.50 L 996.00 347.50 L 986.00 347.50 L 975.00 342.50 L 970.50 338.00 L 966.50 330.00 L 965.50 325.00 L 965.50 245.00 L 962.00 243.50 L 961.00 244.50 L 960.00 243.50 L 919.00 243.50 L 916.50 245.00 L 916.00 342.50 L 900.50 342.00 L 900.00 244.50 L 854.00 243.50 L 852.50 245.00 L 851.50 247.00 L 851.50 336.00 L 852.50 338.00 L 851.00 342.50 L 844.00 342.50 L 842.50 341.00 L 842.00 244.50 L 795.00 244.50 L 794.50 257.00 L 793.00 258.50 L 780.00 246.50 L 768.00 241.50 L 758.00 239.50 L 744.00 239.50 L 743.00 240.50 L 733.00 241.50 L 715.00 249.50 L 707.00 255.50 L 696.50 266.00 L 690.50 275.00 L 683.50 292.00 L 681.50 302.00 L 681.50 324.00 L 682.50 325.00 L 683.50 335.00 L 685.50 339.00 L 685.00 342.50 L 664.50 342.00 L 664.00 244.50 L 661.00 243.50 L 660.00 244.50 L 659.00 243.50 L 656.00 244.50 L 655.00 243.50 L 622.00 243.50 L 621.00 244.50 L 618.00 243.50 L 615.50 245.00 L 615.00 342.50 L 589.50 342.00 L 588.50 338.00 L 589.50 337.00 L 589.50 246.00 L 588.00 244.50 L 586.00 243.50 L 585.00 244.50 L 584.00 243.50 L 583.00 244.50 L 582.00 243.50 L 557.00 243.50 L 556.00 244.50 L 555.00 243.50 L 552.00 244.50 L 549.00 243.50 L 548.00 244.50 L 540.50 245.00 L 540.50 341.00 L 539.00 342.50 L 533.50 342.00 L 538.50 317.00 L 537.50 315.00 L 538.50 306.00 L 537.00 304.50 L 435.50 304.00 L 435.50 295.00 L 438.50 286.00 L 446.00 277.50 L 455.00 273.50 L 460.00 273.50 L 461.00 272.50 L 475.00 273.50 L 482.00 277.50 L 489.00 285.50 L 535.00 285.50 L 535.50 283.00 L 530.50 271.00 L 524.50 262.00 L 517.00 254.50 L 510.00 249.50 L 498.00 243.50 L 476.00 238.50 L 448.00 239.50 L 429.00 244.50 L 413.00 253.50 L 404.50 261.00 L 395.50 273.00 L 388.50 289.00 L 386.50 297.00 L 386.50 305.00 L 385.50 306.00 L 386.50 327.00 L 390.50 342.00 L 398.50 357.00 L 411.00 370.50 L 428.00 380.50 L 446.00 385.50 L 459.00 385.50 L 460.00 386.50 L 478.00 385.50 L 497.00 380.50 L 512.00 371.50 L 522.00 361.50 L 522.50 380.00 L 523.50 381.00 L 522.50 382.00 L 539.00 382.50 L 540.50 384.00 L 540.50 413.00 L 541.50 414.00 L 541.50 420.00 L 545.50 433.00 L 550.50 442.00 L 562.00 454.50 L 569.00 459.50 L 581.00 465.50 L 594.00 468.50 Z M 261.00 465.50 L 268.00 465.50 L 272.50 460.00 L 272.50 455.00 L 270.00 451.50 L 266.00 449.50 L 263.00 449.50 L 259.00 451.50 L 256.50 455.00 L 256.50 461.00 L 261.00 465.50 Z M 97.00 463.50 L 104.00 463.50 L 110.50 458.00 L 111.50 451.00 L 106.00 443.50 L 97.00 442.50 L 90.50 448.00 L 89.50 451.00 L 90.50 458.00 L 97.00 463.50 Z M 151.00 463.50 L 158.00 463.50 L 162.50 458.00 L 162.50 453.00 L 160.00 449.50 L 156.00 447.50 L 153.00 447.50 L 149.00 449.50 L 146.50 453.00 L 146.50 459.00 L 151.00 463.50 Z M 315.00 463.50 L 323.00 463.50 L 329.50 457.00 L 329.50 449.00 L 326.00 444.50 L 322.00 442.50 L 314.00 443.50 L 308.50 450.00 L 308.50 456.00 L 310.50 460.00 L 315.00 463.50 Z M 220.00 450.50 L 224.00 450.50 L 227.50 447.00 L 227.50 442.00 L 224.00 438.50 L 218.00 439.50 L 215.50 443.00 L 216.50 448.00 L 220.00 450.50 Z M 192.00 449.50 L 195.00 449.50 L 199.50 446.00 L 199.50 440.00 L 197.00 437.50 L 191.00 437.50 L 187.50 442.00 L 187.50 445.00 L 192.00 449.50 Z M 293.00 441.50 L 296.00 441.50 L 300.00 439.50 L 302.50 436.00 L 302.50 431.00 L 298.00 425.50 L 291.00 425.50 L 286.50 430.00 L 287.50 438.00 L 293.00 441.50 Z M 248.00 440.50 L 253.00 440.50 L 256.50 436.00 L 256.50 433.00 L 253.00 428.50 L 248.00 428.50 L 244.50 432.00 L 244.50 437.00 L 248.00 440.50 Z M 123.00 439.50 L 129.00 438.50 L 132.50 435.00 L 133.50 432.00 L 132.50 427.00 L 128.00 423.50 L 120.00 424.50 L 116.50 431.00 L 117.50 435.00 L 123.00 439.50 Z M 164.00 437.50 L 170.00 437.50 L 173.50 433.00 L 172.50 429.00 L 168.00 425.50 L 164.00 426.50 L 161.50 429.00 L 160.50 432.00 L 164.00 437.50 Z M 606.00 427.50 L 598.00 425.50 L 595.00 423.50 L 590.50 417.00 L 589.50 406.00 L 588.50 405.00 L 589.50 403.00 L 590.00 382.50 L 615.50 383.00 L 615.50 409.00 L 616.50 410.00 L 616.50 418.00 L 618.50 423.00 L 613.00 426.50 L 607.00 426.50 L 606.00 427.50 Z M 217.00 423.50 L 219.00 423.50 L 221.50 421.00 L 221.50 417.00 L 220.00 415.50 L 216.00 415.50 L 213.50 418.00 L 214.50 422.00 L 217.00 423.50 Z M 196.00 421.50 L 201.50 421.00 L 202.50 416.00 L 201.00 414.50 L 198.00 413.50 L 194.50 416.00 L 194.50 420.00 L 196.00 421.50 Z M 270.00 421.50 L 276.00 421.50 L 279.50 417.00 L 278.50 413.00 L 274.00 409.50 L 270.00 410.50 L 267.50 413.00 L 267.50 419.00 L 270.00 421.50 Z M 74.00 419.50 L 78.00 419.50 L 83.00 417.50 L 85.50 415.00 L 87.50 410.00 L 85.50 402.00 L 83.00 399.50 L 78.00 397.50 L 70.00 399.50 L 65.50 406.00 L 65.50 411.00 L 67.50 415.00 L 74.00 419.50 Z M 144.00 419.50 L 147.00 419.50 L 151.50 414.00 L 150.50 410.00 L 148.00 407.50 L 142.00 407.50 L 139.50 410.00 L 138.50 413.00 L 139.50 416.00 L 144.00 419.50 Z M 342.00 419.50 L 346.00 419.50 L 351.00 417.50 L 353.50 415.00 L 355.50 410.00 L 353.50 402.00 L 351.00 399.50 L 346.00 397.50 L 342.00 397.50 L 338.00 399.50 L 333.50 406.00 L 333.50 411.00 L 335.50 415.00 L 342.00 419.50 Z M 236.00 416.50 L 241.50 415.00 L 241.00 409.50 L 236.00 408.50 L 233.50 411.00 L 233.50 414.00 L 236.00 416.50 Z M 179.00 413.50 L 181.00 413.50 L 183.50 411.00 L 183.50 407.00 L 182.00 405.50 L 178.00 405.50 L 175.50 408.00 L 176.50 412.00 L 179.00 413.50 Z M 105.00 405.50 L 108.00 405.50 L 112.00 403.50 L 114.50 400.00 L 114.50 395.00 L 110.00 389.50 L 103.00 389.50 L 98.50 394.00 L 99.50 402.00 L 105.00 405.50 Z M 310.00 405.50 L 317.00 405.50 L 320.50 403.00 L 321.50 395.00 L 318.00 390.50 L 312.00 389.50 L 306.50 394.00 L 305.50 400.00 L 310.00 405.50 Z M 253.00 403.50 L 255.00 403.50 L 257.50 401.00 L 257.50 397.00 L 256.00 395.50 L 252.00 395.50 L 249.50 398.00 L 250.50 402.00 L 253.00 403.50 Z M 163.00 400.50 L 166.00 400.50 L 168.50 398.00 L 168.50 395.00 L 166.00 392.50 L 163.00 392.50 L 160.50 395.00 L 160.50 398.00 L 163.00 400.50 Z M 287.00 395.50 L 292.00 394.50 L 294.50 391.00 L 294.50 387.00 L 291.00 383.50 L 286.00 383.50 L 282.50 387.00 L 283.50 393.00 L 287.00 395.50 Z M 130.00 393.50 L 133.00 393.50 L 137.50 390.00 L 137.50 384.00 L 134.00 381.50 L 129.00 381.50 L 125.50 386.00 L 125.50 389.00 L 130.00 393.50 Z M 262.00 383.50 L 267.50 383.00 L 268.50 378.00 L 267.00 376.50 L 264.00 375.50 L 260.50 378.00 L 260.50 382.00 L 262.00 383.50 Z M 154.00 382.50 L 159.50 381.00 L 159.00 375.50 L 154.00 374.50 L 151.50 377.00 L 151.50 380.00 L 154.00 382.50 Z M 66.00 369.50 L 70.00 369.50 L 75.00 367.50 L 77.50 365.00 L 79.50 360.00 L 77.50 352.00 L 75.00 349.50 L 70.00 347.50 L 66.00 347.50 L 62.00 349.50 L 57.50 356.00 L 57.50 361.00 L 59.50 365.00 L 66.00 369.50 Z M 350.00 369.50 L 354.00 369.50 L 358.00 367.50 L 361.50 364.00 L 362.50 361.00 L 361.50 353.00 L 358.00 349.50 L 353.00 347.50 L 347.00 348.50 L 341.50 354.00 L 340.50 358.00 L 342.50 364.00 L 347.00 368.50 L 350.00 369.50 Z M 316.00 367.50 L 324.00 366.50 L 327.50 361.00 L 326.50 356.00 L 321.00 351.50 L 315.00 352.50 L 311.50 356.00 L 310.50 360.00 L 311.50 363.00 L 316.00 367.50 Z M 98.00 366.50 L 105.00 365.50 L 108.50 361.00 L 107.50 354.00 L 103.00 350.50 L 96.00 351.50 L 92.50 356.00 L 93.50 363.00 L 98.00 366.50 Z M 290.00 366.50 L 295.00 366.50 L 298.50 362.00 L 298.50 358.00 L 295.00 354.50 L 290.00 354.50 L 286.50 358.00 L 286.50 363.00 L 290.00 366.50 Z M 125.00 364.50 L 131.00 363.50 L 133.50 360.00 L 132.50 355.00 L 129.00 352.50 L 125.00 352.50 L 121.50 356.00 L 120.50 359.00 L 122.50 363.00 L 125.00 364.50 Z M 151.00 362.50 L 154.00 362.50 L 156.50 360.00 L 156.50 357.00 L 154.00 354.50 L 151.00 354.50 L 148.50 357.00 L 148.50 360.00 L 151.00 362.50 Z M 265.00 362.50 L 269.00 362.50 L 270.50 361.00 L 271.50 358.00 L 269.00 354.50 L 263.50 356.00 L 262.50 358.00 L 265.00 362.50 Z M 458.00 355.50 L 448.00 351.50 L 440.50 344.00 L 436.50 334.00 L 438.00 331.50 L 492.50 332.00 L 492.50 335.00 L 488.50 344.00 L 481.00 351.50 L 471.00 355.50 L 458.00 355.50 Z M 757.00 344.50 L 747.00 340.50 L 736.50 330.00 L 732.50 321.00 L 732.50 315.00 L 731.50 314.00 L 732.50 313.00 L 731.50 311.00 L 732.50 306.00 L 734.50 300.00 L 738.50 294.00 L 748.00 285.50 L 759.00 281.50 L 773.00 282.50 L 784.00 288.50 L 791.50 297.00 L 795.50 308.00 L 794.50 323.00 L 790.50 331.00 L 782.00 339.50 L 770.00 344.50 L 757.00 344.50 Z M 1136.00 344.50 L 1125.00 339.50 L 1116.50 331.00 L 1111.50 320.00 L 1111.50 307.00 L 1115.50 297.00 L 1127.00 285.50 L 1139.00 281.50 L 1152.00 282.50 L 1161.00 286.50 L 1169.50 295.00 L 1174.50 307.00 L 1174.50 320.00 L 1169.50 331.00 L 1158.00 341.50 L 1150.00 344.50 L 1136.00 344.50 Z M 156.00 341.50 L 160.00 340.50 L 161.50 338.00 L 161.50 336.00 L 159.00 333.50 L 155.00 333.50 L 152.50 337.00 L 156.00 341.50 Z M 131.00 334.50 L 135.00 334.50 L 138.50 332.00 L 139.50 329.00 L 138.50 325.00 L 135.00 322.50 L 129.00 323.50 L 126.50 328.00 L 128.50 333.00 L 131.00 334.50 Z M 107.00 327.50 L 110.00 327.50 L 114.00 325.50 L 116.50 322.00 L 116.50 317.00 L 112.00 311.50 L 105.00 311.50 L 100.50 316.00 L 101.50 324.00 L 107.00 327.50 Z M 165.00 323.50 L 167.00 323.50 L 170.50 321.00 L 169.00 315.50 L 164.00 315.50 L 162.50 317.00 L 162.50 321.00 L 165.00 323.50 Z M 75.00 319.50 L 82.00 318.50 L 87.50 312.00 L 86.50 303.00 L 82.00 298.50 L 79.00 297.50 L 72.00 298.50 L 66.50 305.00 L 67.50 314.00 L 72.00 318.50 L 75.00 319.50 Z M 181.00 312.50 L 184.00 312.50 L 186.50 310.00 L 186.50 307.00 L 184.00 304.50 L 181.00 304.50 L 178.50 307.00 L 178.50 310.00 L 181.00 312.50 Z M 237.00 311.50 L 241.00 311.50 L 243.50 309.00 L 242.00 304.50 L 238.00 303.50 L 235.50 306.00 L 235.50 310.00 L 237.00 311.50 Z M 146.00 309.50 L 150.00 308.50 L 153.50 304.00 L 152.50 300.00 L 150.00 297.50 L 144.00 297.50 L 141.50 300.00 L 140.50 303.00 L 141.50 306.00 L 146.00 309.50 Z M 221.00 305.50 L 223.00 305.50 L 225.50 303.00 L 225.50 299.00 L 224.00 297.50 L 220.00 297.50 L 217.50 300.00 L 218.50 304.00 L 221.00 305.50 Z M 199.00 304.50 L 202.00 304.50 L 204.50 302.00 L 204.50 299.00 L 202.00 296.50 L 199.00 296.50 L 196.50 299.00 L 196.50 302.00 L 199.00 304.50 Z M 126.00 293.50 L 131.00 292.50 L 135.50 287.00 L 134.50 281.00 L 130.00 277.50 L 124.00 277.50 L 119.50 282.00 L 119.50 289.00 L 123.00 292.50 L 126.00 293.50 Z M 167.00 291.50 L 173.00 291.50 L 175.50 288.00 L 175.50 283.00 L 171.00 279.50 L 168.00 279.50 L 163.50 284.00 L 163.50 287.00 L 167.00 291.50 Z M 250.00 291.50 L 253.00 291.50 L 257.50 288.00 L 257.50 282.00 L 254.00 279.50 L 249.00 279.50 L 245.50 284.00 L 245.50 287.00 L 250.00 291.50 Z M 194.00 281.50 L 197.00 281.50 L 201.50 278.00 L 201.50 272.00 L 198.00 269.50 L 193.00 269.50 L 189.50 274.00 L 189.50 277.00 L 194.00 281.50 Z M 223.00 281.50 L 228.00 281.50 L 231.50 278.00 L 231.50 273.00 L 227.00 269.50 L 224.00 269.50 L 219.50 274.00 L 219.50 277.00 L 223.00 281.50 Z M 98.00 275.50 L 102.00 275.50 L 107.00 273.50 L 109.50 271.00 L 111.50 266.00 L 109.50 258.00 L 107.00 255.50 L 102.00 253.50 L 94.00 255.50 L 89.50 262.00 L 89.50 267.00 L 91.50 271.00 L 98.00 275.50 Z M 153.00 269.50 L 160.00 269.50 L 164.50 264.00 L 164.50 259.00 L 162.00 255.50 L 158.00 253.50 L 155.00 253.50 L 151.00 255.50 L 148.50 259.00 L 148.50 265.00 L 153.00 269.50 Z M 263.00 269.50 L 269.00 268.50 L 273.50 263.00 L 272.50 257.00 L 268.00 253.50 L 260.00 254.50 L 256.50 261.00 L 257.50 265.00 L 263.00 269.50 Z M 188.00 256.50 L 194.00 256.50 L 197.50 254.00 L 199.50 250.00 L 199.50 247.00 L 197.50 243.00 L 194.00 240.50 L 188.00 240.50 L 183.50 245.00 L 182.50 248.00 L 183.50 252.00 L 188.00 256.50 Z M 227.00 256.50 L 232.00 256.50 L 237.50 252.00 L 237.50 245.00 L 232.00 240.50 L 225.00 241.50 L 221.50 247.00 L 221.50 250.00 L 223.50 254.00 L 227.00 256.50 Z M 138.00 245.50 L 142.00 245.50 L 146.00 243.50 L 149.50 240.00 L 150.50 237.00 L 149.50 229.00 L 142.00 223.50 L 135.00 224.50 L 129.50 230.00 L 128.50 235.00 L 129.50 239.00 L 135.00 244.50 L 138.00 245.50 Z M 279.00 243.50 L 286.00 242.50 L 291.50 236.00 L 290.50 227.00 L 286.00 222.50 L 283.00 221.50 L 279.00 221.50 L 275.00 223.50 L 270.50 229.00 L 271.50 238.00 L 279.00 243.50 Z M 182.00 226.50 L 188.00 226.50 L 192.00 224.50 L 195.50 220.00 L 195.50 212.00 L 189.00 205.50 L 179.00 206.50 L 174.50 213.00 L 175.50 221.00 L 182.00 226.50 Z M 232.00 226.50 L 238.00 226.50 L 242.00 224.50 L 245.50 220.00 L 245.50 212.00 L 239.00 205.50 L 229.00 206.50 L 224.50 213.00 L 225.50 221.00 L 232.00 226.50 Z M 518.00 193.50 L 523.00 192.50 L 523.50 190.00 L 522.00 188.50 L 516.00 188.50 L 513.50 186.00 L 511.50 180.00 L 511.50 172.00 L 509.50 162.00 L 511.00 160.50 L 512.00 161.50 L 517.00 161.50 L 519.50 160.00 L 519.50 158.00 L 510.00 157.50 L 508.50 156.00 L 505.50 123.00 L 504.00 120.50 L 502.00 120.50 L 500.50 123.00 L 501.50 124.00 L 501.50 131.00 L 502.50 132.00 L 502.50 139.00 L 504.50 148.00 L 504.50 157.00 L 501.00 157.50 L 500.50 159.00 L 503.00 161.50 L 505.00 161.50 L 506.50 164.00 L 507.50 180.00 L 510.50 189.00 L 513.00 191.50 L 518.00 193.50 Z M 1053.00 193.50 L 1058.50 192.00 L 1057.00 188.50 L 1051.00 188.50 L 1047.50 185.00 L 1044.50 162.00 L 1053.00 161.50 L 1054.50 160.00 L 1053.00 157.50 L 1043.50 157.00 L 1040.50 126.00 L 1039.50 122.00 L 1036.00 120.50 L 1035.50 126.00 L 1036.50 127.00 L 1039.50 157.00 L 1036.00 157.50 L 1035.50 160.00 L 1040.50 162.00 L 1042.50 182.00 L 1044.50 188.00 L 1049.00 192.50 L 1053.00 193.50 Z M 953.00 191.50 L 956.50 191.00 L 956.50 187.00 L 955.50 186.00 L 954.50 170.00 L 951.50 154.00 L 948.50 122.00 L 945.00 120.50 L 943.50 122.00 L 944.50 123.00 L 944.00 125.50 L 941.00 122.50 L 934.00 119.50 L 922.00 120.50 L 914.50 127.00 L 911.50 134.00 L 911.50 145.00 L 913.50 151.00 L 920.00 158.50 L 927.00 161.50 L 938.00 161.50 L 942.00 159.50 L 947.00 154.50 L 948.50 155.00 L 949.50 171.00 L 950.50 172.00 L 951.50 187.00 L 953.00 191.50 Z M 708.00 177.50 L 710.00 177.50 L 719.50 169.00 L 717.00 166.50 L 709.00 172.50 L 699.00 166.50 L 696.50 168.00 L 698.00 170.50 L 708.00 177.50 Z M 828.00 177.50 L 831.00 177.50 L 832.50 176.00 L 832.50 172.00 L 831.00 170.50 L 827.00 170.50 L 825.50 172.00 L 825.50 175.00 L 828.00 177.50 Z M 1106.00 175.50 L 1109.50 174.00 L 1108.50 163.00 L 1107.50 162.00 L 1110.00 160.50 L 1114.00 161.50 L 1114.50 158.00 L 1108.00 157.50 L 1106.50 155.00 L 1103.50 122.00 L 1101.00 120.50 L 1099.50 122.00 L 1099.50 130.00 L 1100.50 131.00 L 1102.50 155.00 L 1103.50 156.00 L 1102.00 157.50 L 1098.50 158.00 L 1101.00 161.50 L 1103.50 161.00 L 1106.00 175.50 Z M 391.00 161.50 L 393.50 160.00 L 393.00 156.50 L 400.00 161.50 L 410.00 161.50 L 415.50 157.00 L 417.50 152.00 L 417.50 148.00 L 416.50 147.00 L 414.50 124.00 L 412.00 120.50 L 409.50 123.00 L 410.50 124.00 L 411.50 140.00 L 413.50 150.00 L 411.50 155.00 L 408.00 157.50 L 400.00 157.50 L 393.50 152.00 L 390.50 141.00 L 388.50 121.00 L 386.00 120.50 L 384.50 122.00 L 387.50 150.00 L 388.50 151.00 L 388.50 159.00 L 391.00 161.50 Z M 443.00 161.50 L 454.00 161.50 L 461.00 157.50 L 463.00 154.50 L 464.50 160.00 L 466.00 161.50 L 468.50 161.00 L 464.50 123.00 L 463.00 120.50 L 459.50 122.00 L 460.50 123.00 L 460.00 125.50 L 457.00 122.50 L 449.00 119.50 L 438.00 120.50 L 431.50 125.00 L 427.50 132.00 L 426.50 140.00 L 427.50 141.00 L 427.50 146.00 L 430.50 153.00 L 436.00 158.50 L 443.00 161.50 Z M 527.00 161.50 L 529.50 160.00 L 530.00 157.50 L 535.00 161.50 L 542.00 161.50 L 542.50 160.00 L 541.00 157.50 L 535.00 157.50 L 531.50 155.00 L 527.50 143.00 L 525.50 122.00 L 522.00 120.50 L 521.50 128.00 L 523.50 137.00 L 524.50 154.00 L 525.50 155.00 L 525.50 160.00 L 527.00 161.50 Z M 562.00 161.50 L 573.00 161.50 L 579.00 158.50 L 583.50 153.00 L 585.50 145.00 L 585.50 142.00 L 584.00 140.50 L 552.00 140.50 L 550.50 139.00 L 553.50 129.00 L 561.00 123.50 L 572.00 124.50 L 580.00 132.50 L 582.50 131.00 L 581.50 128.00 L 576.00 122.50 L 569.00 119.50 L 557.00 120.50 L 549.50 127.00 L 546.50 134.00 L 546.50 143.00 L 548.50 150.00 L 556.00 158.50 L 562.00 161.50 Z M 610.00 161.50 L 624.00 160.50 L 630.00 154.50 L 630.50 160.00 L 632.00 161.50 L 635.50 160.00 L 633.50 151.00 L 633.50 143.00 L 632.50 142.00 L 632.50 135.00 L 630.50 126.00 L 628.50 102.00 L 627.00 98.50 L 623.50 99.00 L 627.00 126.50 L 619.00 120.50 L 607.00 119.50 L 599.00 123.50 L 594.50 130.00 L 593.50 142.00 L 595.50 149.00 L 603.00 158.50 L 610.00 161.50 Z M 650.00 161.50 L 653.50 160.00 L 651.50 142.00 L 650.50 141.00 L 650.50 129.00 L 653.00 125.50 L 657.00 123.50 L 663.00 123.50 L 668.50 127.00 L 671.50 135.00 L 673.50 159.00 L 675.00 161.50 L 678.50 160.00 L 674.50 130.00 L 671.50 124.00 L 667.00 120.50 L 664.00 119.50 L 653.00 120.50 L 648.50 124.00 L 646.50 128.00 L 646.50 141.00 L 647.50 142.00 L 648.50 158.00 L 650.00 161.50 Z M 702.00 161.50 L 713.00 161.50 L 719.00 158.50 L 724.50 150.00 L 725.00 140.50 L 692.00 140.50 L 690.50 139.00 L 693.50 129.00 L 701.00 123.50 L 712.00 124.50 L 720.00 132.50 L 722.50 131.00 L 721.50 128.00 L 716.00 122.50 L 709.00 119.50 L 701.00 119.50 L 694.00 122.50 L 689.50 127.00 L 686.50 135.00 L 686.50 143.00 L 688.50 150.00 L 696.00 158.50 L 702.00 161.50 Z M 741.00 161.50 L 742.50 161.00 L 743.00 156.50 L 747.00 160.50 L 750.00 161.50 L 759.00 161.50 L 764.50 158.00 L 766.50 154.00 L 766.50 145.00 L 765.50 144.00 L 763.50 122.00 L 762.00 120.50 L 759.50 121.00 L 759.50 128.00 L 760.50 129.00 L 762.50 152.00 L 758.00 157.50 L 749.00 157.50 L 743.50 153.00 L 740.50 145.00 L 738.50 124.00 L 737.00 120.50 L 733.50 122.00 L 734.50 123.00 L 737.50 155.00 L 738.50 160.00 L 741.00 161.50 Z M 794.00 161.50 L 805.00 161.50 L 813.50 157.00 L 813.00 151.50 L 804.00 157.50 L 794.00 157.50 L 788.00 154.50 L 782.50 147.00 L 781.50 134.00 L 783.50 130.00 L 788.00 125.50 L 792.00 123.50 L 801.00 123.50 L 810.50 129.00 L 810.50 125.00 L 809.00 123.50 L 800.00 119.50 L 792.00 119.50 L 786.00 121.50 L 779.50 128.00 L 776.50 137.00 L 777.50 138.00 L 776.50 139.00 L 777.50 146.00 L 781.50 154.00 L 788.00 159.50 L 794.00 161.50 Z M 827.00 161.50 L 829.50 159.00 L 828.50 158.00 L 824.50 121.00 L 823.00 120.50 L 820.50 122.00 L 820.50 126.00 L 821.50 127.00 L 821.50 134.00 L 823.50 143.00 L 824.50 159.00 L 827.00 161.50 Z M 854.00 161.50 L 865.00 161.50 L 870.00 159.50 L 875.00 154.50 L 875.50 160.00 L 878.00 161.50 L 879.50 160.00 L 877.50 136.00 L 876.50 135.00 L 875.50 122.00 L 874.00 120.50 L 871.50 121.00 L 871.00 125.50 L 868.00 122.50 L 861.00 119.50 L 849.00 120.50 L 839.50 130.00 L 838.50 133.00 L 839.50 148.00 L 846.00 157.50 L 854.00 161.50 Z M 978.00 161.50 L 989.00 161.50 L 995.00 159.50 L 999.50 156.00 L 1003.50 149.00 L 1003.50 136.00 L 1000.50 129.00 L 994.00 122.50 L 985.00 119.50 L 977.00 119.50 L 971.00 121.50 L 966.50 125.00 L 961.50 135.00 L 961.50 143.00 L 965.50 153.00 L 971.00 158.50 L 978.00 161.50 Z M 1062.00 161.50 L 1064.50 160.00 L 1064.50 156.00 L 1063.50 155.00 L 1063.50 147.00 L 1061.50 138.00 L 1061.50 130.00 L 1068.00 123.50 L 1077.00 124.50 L 1080.50 128.00 L 1082.50 133.00 L 1085.50 160.00 L 1087.00 161.50 L 1089.50 160.00 L 1085.50 129.00 L 1083.50 125.00 L 1078.00 120.50 L 1067.00 119.50 L 1061.00 122.50 L 1058.50 126.00 L 1057.50 138.00 L 1059.50 147.00 L 1059.50 156.00 L 1062.00 161.50 Z M 1124.00 161.50 L 1125.50 160.00 L 1125.50 152.00 L 1124.50 151.00 L 1122.50 133.00 L 1123.50 128.00 L 1129.00 123.50 L 1136.00 123.50 L 1141.50 128.00 L 1144.50 137.00 L 1146.50 160.00 L 1149.00 161.50 L 1150.50 160.00 L 1146.50 128.00 L 1141.00 121.50 L 1136.00 119.50 L 1128.00 119.50 L 1124.00 121.50 L 1119.50 127.00 L 1118.50 135.00 L 1119.50 136.00 L 1121.50 160.00 L 1124.00 161.50 Z M 1167.00 161.50 L 1168.50 161.00 L 1169.00 157.50 L 1174.00 161.50 L 1180.00 161.50 L 1181.50 160.00 L 1179.00 157.50 L 1174.00 157.50 L 1169.50 154.00 L 1166.50 145.00 L 1164.50 124.00 L 1161.00 120.50 L 1159.50 123.00 L 1161.50 132.00 L 1163.50 156.00 L 1164.50 160.00 L 1167.00 161.50 Z M 1202.00 161.50 L 1213.00 161.50 L 1220.00 158.50 L 1224.50 154.00 L 1227.50 145.00 L 1226.50 135.00 L 1222.50 127.00 L 1217.00 122.50 L 1209.00 119.50 L 1200.00 119.50 L 1193.00 122.50 L 1187.50 128.00 L 1185.50 133.00 L 1185.50 138.00 L 1184.50 139.00 L 1187.50 151.00 L 1193.00 157.50 L 1202.00 161.50 Z M 443.00 157.50 L 440.00 156.50 L 433.50 150.00 L 431.50 144.00 L 431.50 134.00 L 433.50 130.00 L 438.00 125.50 L 442.00 123.50 L 450.00 123.50 L 456.00 126.50 L 460.50 132.00 L 462.50 138.00 L 462.50 147.00 L 460.50 152.00 L 457.00 155.50 L 453.00 157.50 L 443.00 157.50 Z M 563.00 157.50 L 560.00 156.50 L 553.50 150.00 L 552.00 144.50 L 575.00 144.50 L 576.00 143.50 L 578.00 144.50 L 579.00 143.50 L 580.50 145.00 L 579.50 151.00 L 574.00 156.50 L 572.00 157.50 L 563.00 157.50 Z M 610.00 157.50 L 606.00 155.50 L 599.50 148.00 L 597.50 136.00 L 599.50 130.00 L 605.00 124.50 L 616.00 123.50 L 621.00 125.50 L 625.50 130.00 L 628.50 136.00 L 629.50 145.00 L 627.50 151.00 L 624.00 155.50 L 620.00 157.50 L 610.00 157.50 Z M 703.00 157.50 L 699.00 155.50 L 693.50 150.00 L 691.50 145.00 L 693.00 143.50 L 694.00 144.50 L 720.50 145.00 L 719.50 151.00 L 717.00 154.50 L 712.00 157.50 L 703.00 157.50 Z M 854.00 157.50 L 850.00 155.50 L 844.50 149.00 L 842.50 143.00 L 842.50 136.00 L 844.50 130.00 L 849.00 125.50 L 853.00 123.50 L 861.00 123.50 L 866.00 125.50 L 870.50 130.00 L 873.50 136.00 L 873.50 148.00 L 871.50 152.00 L 867.00 156.50 L 854.00 157.50 Z M 927.00 157.50 L 922.00 154.50 L 918.50 150.00 L 915.50 142.00 L 915.50 137.00 L 918.50 129.00 L 922.00 125.50 L 926.00 123.50 L 934.00 123.50 L 940.00 126.50 L 944.50 132.00 L 946.50 137.00 L 946.50 147.00 L 944.50 152.00 L 941.00 155.50 L 937.00 157.50 L 927.00 157.50 Z M 978.00 157.50 L 974.00 155.50 L 968.50 150.00 L 966.50 146.00 L 965.50 138.00 L 968.50 130.00 L 973.00 125.50 L 978.00 123.50 L 986.00 123.50 L 991.00 125.50 L 996.50 131.00 L 999.50 137.00 L 999.50 146.00 L 997.50 151.00 L 993.00 155.50 L 989.00 157.50 L 978.00 157.50 Z M 1202.00 157.50 L 1196.00 154.50 L 1192.50 151.00 L 1189.50 145.00 L 1189.50 135.00 L 1191.50 130.00 L 1196.00 125.50 L 1201.00 123.50 L 1209.00 123.50 L 1217.00 127.50 L 1220.50 132.00 L 1222.50 136.00 L 1222.50 147.00 L 1220.50 151.00 L 1216.00 155.50 L 1212.00 157.50 L 1202.00 157.50 Z" fill="#000000" stroke="none" fill-rule="evenodd" /></g></svg>